<svg width="1200" height="720" viewBox="0 0 1200 720" fill="none" xmlns="http://www.w3.org/2000/svg">
  <rect width="1200" height="720" fill="#0A1321"/>
  <text x="60" y="72" fill="#F8FAFC" font-family="Arial, sans-serif" font-size="34" font-weight="700">hypebot-rs architecture overview</text>
  <text x="60" y="108" fill="#94A3B8" font-family="Arial, sans-serif" font-size="20">A trading system layout built around separation of concerns.</text>

  <rect x="60" y="160" width="240" height="96" rx="18" fill="#0F172A" stroke="#1D4ED8"/>
  <text x="92" y="204" fill="#E2E8F0" font-family="Arial, sans-serif" font-size="24" font-weight="700">HlWsClient</text>
  <text x="92" y="232" fill="#7DD3FC" font-family="Arial, sans-serif" font-size="16">heartbeat · stale detect · reconnect</text>

  <rect x="340" y="160" width="240" height="96" rx="18" fill="#0F172A" stroke="#0EA5E9"/>
  <text x="388" y="204" fill="#E2E8F0" font-family="Arial, sans-serif" font-size="24" font-weight="700">MarketFeed</text>
  <text x="374" y="232" fill="#7DD3FC" font-family="Arial, sans-serif" font-size="16">typed market events and candle flow</text>

  <rect x="620" y="160" width="250" height="96" rx="18" fill="#0F172A" stroke="#10B981"/>
  <text x="664" y="204" fill="#E2E8F0" font-family="Arial, sans-serif" font-size="24" font-weight="700">SymbolRunner</text>
  <text x="660" y="232" fill="#6EE7B7" font-family="Arial, sans-serif" font-size="16">one market, one lifecycle group</text>

  <rect x="910" y="160" width="230" height="96" rx="18" fill="#0F172A" stroke="#A855F7"/>
  <text x="944" y="204" fill="#E2E8F0" font-family="Arial, sans-serif" font-size="24" font-weight="700">Strategy</text>
  <text x="938" y="232" fill="#C4B5FD" font-family="Arial, sans-serif" font-size="16">breakout retest and risk rules</text>

  <rect x="210" y="360" width="260" height="108" rx="18" fill="#0F172A" stroke="#22C55E"/>
  <text x="248" y="408" fill="#E2E8F0" font-family="Arial, sans-serif" font-size="24" font-weight="700">OrderExecutor</text>
  <text x="240" y="438" fill="#86EFAC" font-family="Arial, sans-serif" font-size="16">serialized exchange calls</text>
  <text x="240" y="460" fill="#86EFAC" font-family="Arial, sans-serif" font-size="16">designed to avoid nonce conflicts</text>

  <rect x="510" y="360" width="210" height="108" rx="18" fill="#0F172A" stroke="#F59E0B"/>
  <text x="560" y="408" fill="#E2E8F0" font-family="Arial, sans-serif" font-size="24" font-weight="700">State</text>
  <text x="542" y="438" fill="#FCD34D" font-family="Arial, sans-serif" font-size="16">restores setup context across restarts</text>

  <rect x="760" y="360" width="230" height="108" rx="18" fill="#0F172A" stroke="#EF4444"/>
  <text x="812" y="408" fill="#E2E8F0" font-family="Arial, sans-serif" font-size="24" font-weight="700">Watchdog</text>
  <text x="786" y="438" fill="#FCA5A5" font-family="Arial, sans-serif" font-size="16">HTTP verification and recovery guardrails</text>

  <rect x="440" y="548" width="320" height="100" rx="18" fill="#0F172A" stroke="#38BDF8"/>
  <text x="486" y="592" fill="#E2E8F0" font-family="Arial, sans-serif" font-size="24" font-weight="700">Notifications + Dry Run</text>
  <text x="484" y="622" fill="#7DD3FC" font-family="Arial, sans-serif" font-size="16">safer testing and better runtime visibility</text>

  <path d="M300 208H340" stroke="#334155" stroke-width="4"/>
  <path d="M580 208H620" stroke="#334155" stroke-width="4"/>
  <path d="M870 208H910" stroke="#334155" stroke-width="4"/>
  <path d="M745 256V320" stroke="#334155" stroke-width="4"/>
  <path d="M600 256V320" stroke="#334155" stroke-width="4"/>
  <path d="M480 256V320" stroke="#334155" stroke-width="4"/>
  <path d="M1025 256V320" stroke="#334155" stroke-width="4"/>
  <path d="M340 468V520H600V548" stroke="#334155" stroke-width="4"/>
  <path d="M615 468V548" stroke="#334155" stroke-width="4"/>
  <path d="M875 468V520H600" stroke="#334155" stroke-width="4"/>
</svg>
